# xmcd
#
# Track frame offsets:
#	150
#	15192
#	24643
#	43966
#	55377
#	64330
#	78989
#	93872
#	109021
#	120375
#	136599
#	146491
#	159054
#	172945
#	192042
#
# Disc length: 2730 seconds
#
# Revision: 1
# Processed by: cddbd v1.5.2PL0 Copyright (c) Steve Scherf et al.
# Submitted via: audiograbber 1.83.01
#
DISCID=b10aa80f
DTITLE=Franco Morone - Italian Fingerstyle Guitar
DYEAR=2007
DGENRE=National Folk
TTITLE0=Saltarella
TTITLE1=Giovanottina/Tarantella Napoletana
TTITLE2=Non Potho Reposare
TTITLE3=Tarantella
TTITLE4=Nebbi alla Valle
TTITLE5=Stelutis Alpinis
TTITLE6=Donna Lombarda/Le Donne Belle
TTITLE7=Vola Vola Vola
TTITLE8=Bella Ciao
TTITLE9=Amor Dammi Quel Fazzolettino
TTITLE10=Adeste Fideles
TTITLE11=Comm'è Bellu
TTITLE12=Mamma Mia Dammi Cento Lire
TTITLE13=Calderai/Bigordino/Giga
TTITLE14=Caro Mio Ben
EXTD=
EXTT0=
EXTT1=
EXTT2=
EXTT3=
EXTT4=
EXTT5=
EXTT6=
EXTT7=
EXTT8=
EXTT9=
EXTT10=
EXTT11=
EXTT12=
EXTT13=
EXTT14=
PLAYORDER=
